<svg width="34" height="73" viewBox="0 0 34 73" fill="none" xmlns="http://www.w3.org/2000/svg">
<path d="M34 56C34 65.3888 26.3888 73 17 73C7.61116 73 0 65.3888 0 56C0 46.6112 7.61116 39 17 39C26.3888 39 34 46.6112 34 56Z" fill="#C4C4C4"/>
<path d="M23.6 58.1365C23.5989 58.249 23.5519 58.3612 23.4588 58.4489L23.4587 58.449C23.2574 58.639 22.9216 58.6389 22.7204 58.449L22.7204 58.449L17.7744 53.7826L17.4999 53.5236L17.2254 53.7826L12.2797 58.4488C12.2797 58.4488 12.2796 58.4489 12.2796 58.4489C12.0781 58.6389 11.7424 58.6388 11.5412 58.4489L11.5411 58.4488C11.4483 58.3613 11.4013 58.2494 11.4 58.1372C11.4011 58.0247 11.4481 57.9124 11.5412 57.8246L11.5412 57.8246L17.1308 52.551C17.1308 52.5509 17.1309 52.5509 17.1309 52.5509C17.2292 52.4582 17.3616 52.4085 17.4999 52.4085C17.6382 52.4085 17.7708 52.4583 17.8691 52.551C17.8691 52.551 17.8691 52.551 17.8691 52.551L23.4587 57.8247L23.4588 57.8248C23.5516 57.9124 23.5987 58.0243 23.6 58.1365Z" fill="white" stroke="white" stroke-width="0.8"/>
<g clip-path="url(#clip0_3715_5434)">
<path d="M17.0042 0H16.9958C7.62238 0 0 7.6245 0 17C0 20.7188 1.1985 24.1655 3.23638 26.9641L1.11775 33.2796L7.65213 31.1908C10.3403 32.9715 13.5469 34 17.0042 34C26.3776 34 34 26.3734 34 17C34 7.62663 26.3776 0 17.0042 0Z" fill="#4CAF50"/>
<path d="M26.8962 24.0061C26.486 25.1642 24.8583 26.1247 23.5599 26.4052C22.6717 26.5944 21.5114 26.7452 17.6057 25.126C12.6098 23.0562 9.39255 17.9796 9.1418 17.6502C8.90167 17.3209 7.12305 14.9621 7.12305 12.5226C7.12305 10.0831 8.36192 8.89524 8.8613 8.38524C9.27142 7.96661 9.9493 7.77536 10.5995 7.77536C10.8099 7.77536 10.999 7.78599 11.169 7.79449C11.6684 7.81574 11.9192 7.84549 12.2485 8.63386C12.6587 9.62199 13.6574 12.0615 13.7764 12.3122C13.8975 12.563 14.0187 12.903 13.8487 13.2324C13.6893 13.5724 13.549 13.7232 13.2983 14.0122C13.0475 14.3012 12.8095 14.5222 12.5588 14.8325C12.3293 15.1024 12.07 15.3914 12.359 15.8907C12.648 16.3795 13.6468 18.0094 15.1173 19.3184C17.0149 21.0077 18.5534 21.5475 19.1038 21.777C19.5139 21.947 20.0027 21.9066 20.3023 21.5879C20.6827 21.1777 21.1523 20.4977 21.6304 19.8284C21.9704 19.3481 22.3997 19.2886 22.8502 19.4586C23.3092 19.618 25.738 20.8186 26.2374 21.0672C26.7368 21.318 27.0662 21.437 27.1873 21.6474C27.3063 21.8577 27.3063 22.8459 26.8962 24.0061Z" fill="white"/>
</g>
<defs>
<clipPath id="clip0_3715_5434">
<rect width="34" height="34" fill="white"/>
</clipPath>
</defs>
</svg>
